<?xml version="1.0" encoding="UTF-8" standalone="no"?>
<svg
   xmlns:dc="http://purl.org/dc/elements/1.1/"
   xmlns:cc="http://creativecommons.org/ns#"
   xmlns:rdf="http://www.w3.org/1999/02/22-rdf-syntax-ns#"
   xmlns:svg="http://www.w3.org/2000/svg"
   xmlns="http://www.w3.org/2000/svg"
   viewBox="0 0 716 448"
   height="448"
   width="716"
   xml:space="preserve"
   id="svg2"
   version="1.1"><metadata
     id="metadata8"><rdf:RDF><cc:Work
         rdf:about=""><dc:format>image/svg+xml</dc:format><dc:type
           rdf:resource="http://purl.org/dc/dcmitype/StillImage" /></cc:Work></rdf:RDF></metadata><defs
     id="defs6" /><g
     transform="matrix(1.3333333,0,0,-1.3333333,0,448)"
     id="g10"><g
       transform="scale(0.1)"
       id="g12"><path
         id="path14"
         style="fill:#5893cf;fill-opacity:1;fill-rule:evenodd;stroke:none"
         d="M 1349.02,3353.35 C 829.859,3362.15 394.297,2799 394.297,2799 h 63.793 c 912.96,867.67 1789.94,8.21 1190.11,-941.52 -321.18,-541.16 -752.345,-620.35 -752.345,-620.35 421.625,68.74 675.105,400.69 675.105,400.69 480.74,385.66 734.65,1740.02 -221.94,1715.53" /><path
         id="path16"
         style="fill:#40a5dd;fill-opacity:1;fill-rule:evenodd;stroke:none"
         d="m 112.723,2306.24 c 0,0 131.984,325.57 215.578,391.57 l 17.601,-26.4 c 0,0 -180.386,-228.78 -233.179,-365.17" /><path
         id="path18"
         style="fill:#293778;fill-opacity:1;fill-rule:evenodd;stroke:none"
         d="m 3491.35,742.523 v 532.707 c 354.4,75.05 296.85,-573.023 0,-532.707 z M 4205.49,5.21875 c 38.6,472.23025 61.76,959.90625 0,1439.86125 H 4661 c -57.91,-413.04 -61.77,-853.107 -19.3,-1239.127 176.28,-50.187 356.42,7.719 528.85,23.156 L 5155.11,5.22266 C 4884.89,18.0859 4622.39,23.2344 4356.04,20.6602 Z m -1127.19,0 c 54.05,481.24225 69.49,962.48025 0,1443.72125 h 644.66 c 723.32,7.99 441.44,-985.858 -231.61,-775.905 0,-222.601 19.3,-445.211 34.74,-667.81625 z M 2495.41,9.07422 C 2544.3,487.742 2558.46,970.273 2491.55,1445.08 h 455.5 c -46.32,-487.674 -50.17,-959.908 0,-1439.86125 l -451.64,3.85547" /><path
         id="path20"
         style="fill:#293778;fill-opacity:1;fill-rule:nonzero;stroke:none"
         d="m 773.125,169.547 c 0,0 1.074,71.019 19.855,78.258 0,0 89.797,66.715 106.43,94.886 0,0 60.551,96.059 84.516,111.707 0,0 23.864,54.196 35.414,57.329 l 44.89,103.293 c 0,0 106.44,76.304 122.09,111.71 0,0 23.96,52.043 36.48,54.192 0,0 17.81,175.297 4.21,234.768 0,0 -8.31,116.8 -17.71,128.35 0,0 -23.96,142.91 -62.6,169.03 0,0 160.62,83.44 238.88,153.38 0,0 150.35,125.21 183.71,169.03 l 37.56,-32.28 c 0,0 26.11,0 21.91,-50.09 0,0 65.73,-71.01 74.05,-85.59 l 52.14,-55.26 c 0,0 51.06,-25.05 90.77,-110.64 0,0 128.35,-233.79 131.48,-267.15 0,0 61.52,58.41 115.82,25.05 0,0 41.86,-33.36 14.67,-77.184 L 1983.45,821.621 c 0,0 -68.86,-28.176 -87.64,-31.308 0,0 -54.2,-17.801 -126.19,-109.559 l -325.55,-304.606 -54.29,-15.656 c 0,0 -22.01,-73.172 -16.73,-102.32 0,0 -5.18,-57.32 -20.83,-67.789 0,0 -61.63,6.16 -76.2,36.488 l -61.53,79.332 c 0,0 -124.23,-115.918 -195.15,-232.7147 0,0 7.24,-41.6719 -9.39,-54.1953 0,0 -194.079,-48.0274 -228.509,33.3593 0,0 -5.187,66.8167 -14.582,66.8167 0,0 -4.203,50.078 6.266,50.078" /><path
         id="path22"
         style="fill:#fefefe;fill-opacity:1;fill-rule:nonzero;stroke:none"
         d="m 811.766,82.8789 v 63.6801 c 0,0 20.734,39.617 57.316,27.097 0,0 97.141,-11.543 99.195,-46.953 l 10.368,-37.5624 c 0,0 14.57,-23.9687 -12.52,-33.3593 0,0 -100.07,-19.8555 -154.359,27.0976" /><path
         id="path24"
         style="fill:#fefefe;fill-opacity:1;fill-rule:nonzero;stroke:none"
         d="m 1309.47,255.047 -32.38,53.211 c 0,0 -8.31,18.879 15.66,17.805 0,0 41.66,12.519 52.13,12.519 0,0 7.44,-59.477 -0.98,-93.91 0,0 -20.83,-10.563 -34.43,10.375" /><path
         id="path26"
         style="fill:#fefefe;fill-opacity:1;fill-rule:nonzero;stroke:none"
         d="m 1396.04,924.914 c 0,0 43.83,35.41 128.35,25.043 0,0 77.18,-18.684 87.64,-38.543 0,0 -94.98,42.848 -154.46,25.047 l 24.07,-3.133 c 0,0 -69.94,-3.226 -85.6,-8.414" /><path
         id="path28"
         style="fill:#fefefe;fill-opacity:1;fill-rule:nonzero;stroke:none"
         d="m 1872.92,844.609 c 0,0 48.03,65.731 75.13,65.731 0,0 84.41,28.273 32.27,116.9 0,0 72,61.43 112.7,22.89 0,0 14.67,-23.87 11.54,-38.54 0,0 -53.22,-60.555 -85.6,-82.469 0,0 -78.15,-66.812 -95.96,-65.734 0,0 -21.91,-19.86 -50.08,-18.778" /><path
         id="path30"
         style="fill:#293778;fill-opacity:1;fill-rule:nonzero;stroke:none"
         d="m 586.383,2273.07 c 0,0 -61.528,94.98 -56.344,143.99 0,0 -17.805,34.44 41.672,117.87 0,0 79.234,121.01 222.246,53.22 0,0 42.848,-11.44 88.727,-105.35 0,0 60.55,-31.4 68.863,-30.33 0,0 11.445,-26.02 -50.082,-54.19 l 17.703,-42.85 c 0,0 46.957,9.4 48.031,16.73 l 4.203,-20.83 -0.039,-0.03 1.387,-6.64 0.707,0.41 5.188,-24.07 c 0,0 75.125,72.1 122.075,121.11 0,0 21.92,78.25 38.64,109.55 0,0 -22.01,119.93 -16.72,124.14 0,0 47.93,41.77 106.42,32.38 0,0 -15.65,58.3 -42.74,54.19 v 12.52 c 0,0 -85.6,-11.54 -78.26,-81.39 0,0 -32.38,-15.65 -72,15.65 l -26.11,72 c 0,0 -27.005,18.88 -54.196,-22.89 0,0 -294.242,-61.63 -513.359,-94.98 0,0 -314.204,-48.03 -415.3481,-10.47 0,0 -39.6172,71.01 -5.1836,110.64 l 62.6015,-1.08 c 0,0 -64.6562,-12.52 -70.9179,-31.3 0,0 306.7661,-23.97 449.6801,26.11 0,0 438.332,77.19 492.527,90.78 0,0 -7.242,19.76 -21.914,14.58 0,0 -423.754,-70.92 -506.121,-67.79 0,0 437.258,76.2 499.863,75.12 0,0 17.801,10.37 50.086,-22.99 0,0 14.668,8.32 18.777,15.66 0,0 -2.148,-37.56 16.635,-37.56 0,0 1.17,-20.84 8.41,-20.84 l 28.17,-40.69 c 0,0 126.29,41.76 150.25,51.15 0,0 -2.05,26.03 -6.26,27.1 l -151.33,-49 -34.43,62.6 33.36,-46.96 c 0,0 104.37,31.3 154.46,42.75 l -15.65,60.55 c 0,0 14.57,-36.59 18.78,11.45 l 7.34,-31.3 c 0,0 35.41,3.12 10.37,-34.44 0,0 9.48,-62.6 14.66,-75.12 l 66.72,-32.38 -33.36,-20.84 38.64,-1.08 c 0,0 -52.14,-34.43 -37.56,-59.47 0,0 32.28,-31.21 72.98,-7.24 0,0 19.95,-18.78 27.19,-18.78 0,0 7.23,-18.88 -16.73,-30.32 l -45.88,-199.26 c 0,0 -11.54,-53.32 -29.25,-66.82 l -123.15,-233.69 c 0,0 174.32,-144.08 193.09,-185.76 l 128.35,-199.26 -1.08,-22.99 33.36,-15.65 c 0,0 -160.63,-227.52 -377.69,-350.58 0,0 -26.12,45.98 -4.2,114.84 0,0 -30.13,83.44 -22.89,83.44 0,0 -12.62,43.82 -33.46,56.34 L 848.254,1786.8 692.813,1931.88 c 0,0 -23.086,17.7 -20.934,130.39 0,0 -47.934,13.59 -33.356,53.21 0,0 -33.359,54.29 -25.043,63.68 0,0 39.715,0 44.899,9.39 0,0 32.379,-38.73 59.476,-36.58 0,0 -64.757,52.23 -74.148,45.97 0,0 -45.781,20.84 -51.062,39.62 0,0 42.843,-40.79 34.433,-13.6 l -30.324,19.86 c 0,0 -3.133,28.27 -10.371,29.25" /><path
         id="path32"
         style="fill:#293778;fill-opacity:1;fill-rule:nonzero;stroke:none"
         d="m 1017.58,2942.36 156.51,15.65 v -14.87 c 0,0 -28.96,14.87 -39.13,-11.74 0,0 -27.39,32.08 -42.26,-0.78 0,0 -36.78,28.17 -46.95,-10.96 0,0 -23.48,21.91 -28.17,22.7" /><path
         id="path34"
         style="fill:#293778;fill-opacity:1;fill-rule:nonzero;stroke:none"
         d="m 1203.83,2947.84 c 0,0 8.6,20.34 39.12,9.39 0,0 107.21,11.73 124.43,-24.26 0,0 16.44,-36 16.44,-52.43 l 53.21,-10.18 -6.26,-60.25 -27.39,-14.09 c 0,0 -5.48,-61.82 -7.04,-75.91 0,0 -17.22,93.13 -51.65,71.21 0,0 -29.74,2.35 -40.69,17.22 l -41.48,21.13 41.48,-5.48 c 0,0 46.95,-8.61 18.77,27.39 0,0 64.96,-10.17 36,16.43 l 15.66,5.48 c 0,0 -11.74,64.95 -25.05,69.65 0,0 -16.43,-3.13 -13.3,-16.44 0,0 -21.91,39.92 -43.04,8.62 0,0 -17.22,22.69 -38.35,11.73 0,0 -25.04,13.31 -50.86,0.79" /><path
         id="path36"
         style="fill:#fefefe;fill-opacity:1;fill-rule:nonzero;stroke:none"
         d="m 607.152,2290.78 c 0,0 -4.699,-37.57 11.739,-50.09 0,0 90.777,-78.25 116.597,-85.3 0,0 126.778,-10.17 235.551,66.52 0,0 -3.91,65.73 -7.039,67.3 l 21.91,17.22 v 10.17 l -24.262,-18 -13.3,32.87 25.824,14.87 -3.91,10.17 c 0,0 -105.649,-56.34 -237.117,-82.95 l -66.516,-15.65 c 0,0 -36,-9.39 -38.348,49.3 l -3.914,-3.13 c 0,0 -3.914,-57.13 41.477,-57.13 0,0 241.808,61.04 273.113,79.04 0,0 13.305,-10.17 18,-102.52 0,0 -189.383,-96.25 -247.289,-38.34 l -81.387,59.48 c 0,0 -24.261,31.3 -21.129,46.17" /><path
         id="path38"
         style="fill:#fefefe;fill-opacity:1;fill-rule:nonzero;stroke:none"
         d="m 748.367,2166.37 36.781,107.99 12.524,5.48 -36,-112.69 -13.305,-0.78" /><path
         id="path40"
         style="fill:#fefefe;fill-opacity:1;fill-rule:nonzero;stroke:none"
         d="m 883.75,2193.76 c 0,0 -8.605,95.47 -23.477,108.77 l 15.653,2.35 c 0,0 14.09,-79.82 18.785,-107.99 l -10.961,-3.13" /><path
         id="path42"
         style="fill:#fefefe;fill-opacity:1;fill-rule:nonzero;stroke:none"
         d="m 664.637,2242.28 c 0,0 1.558,-46.17 139.293,-14.87 0,0 130.691,24.26 179.207,80.6 l -1.567,9.39 c 0,0 -61.035,-61.04 -166.683,-71.99 0,0 -96.254,-32.09 -150.25,-3.13" /><path
         id="path44"
         style="fill:#008cd3;fill-opacity:1;fill-rule:evenodd;stroke:none"
         d="M 2297.14,1820.01 H 5364.96 V 3062.69 H 2297.14 V 1820.01" /><path
         id="path46"
         style="fill:#fefefe;fill-opacity:1;fill-rule:evenodd;stroke:none"
         d="m 4595.69,2516.24 c 24.61,4.67 194.98,2.01 233.98,2.01 35.15,0 81.63,3.17 113.83,-5.09 166.07,-42.67 165.06,-303.34 -15.09,-334.11 -26.56,-4.56 -194.03,-2.01 -234.49,-2.01 -34.04,0 -83.78,-3.15 -113.77,4.91 -97.5,26.41 -143.6,131.94 -112.86,225.41 18,54.9 63.79,96.55 128.4,108.88 z m 574.13,-200.98 c 11.76,109.61 -35.5,196.75 -94.51,245.49 -31.45,25.99 -65.56,45.16 -114.94,56.71 -42.3,10.09 -116.38,5.75 -164.55,5.75 -57.19,0 -114.36,-0.04 -171.55,0 -55.3,0.14 -96.95,-12.28 -136.81,-35.34 -168.55,-96.89 -177.83,-334.41 -38.87,-453.2 86.1,-73.75 169.81,-63.1 279.15,-63.1 57.24,0 114.48,0 171.61,0 138.07,0.15 254.85,97.63 270.47,243.69 z m -1624.35,232.9 c 3.06,-17.73 31.79,-55.62 42.12,-70.57 l 135.62,-199.38 c 26.47,-39.13 63.1,-95.35 90.46,-132.89 27.54,-37.92 74.84,-79.46 147.28,-76.16 67.91,3.14 105.85,46.14 134.95,88.29 29.57,42.89 59.37,87.91 90.44,132.96 l 158.42,233.09 c 32.07,47.41 -8.1,99.38 -54.7,90.42 -29.08,-5.8 -41.81,-31.87 -56.88,-54.89 l -90.13,-133.05 c -30.19,-43.36 -60.12,-89.27 -90.51,-132.76 -15.47,-22.25 -29.5,-43.83 -45.04,-66.56 -12.59,-18.37 -32.78,-51.93 -67.07,-43.73 -25.27,6.21 -42.8,37.67 -55.35,56.55 -15.19,22.68 -29.42,43.29 -45.03,66.56 -30.21,44.04 -59.03,86.01 -90.43,132.82 -30.42,45.42 -58.73,86.99 -90.38,132.98 -14.03,20.54 -29.83,49.03 -68.32,42.08 -27.43,-4.83 -51.27,-31.61 -45.45,-65.76 z m -1054.52,1.7 c 2.6,-19.74 31.29,-56 41.62,-71.07 l 180.53,-265.76 c 44.83,-67.12 88.38,-147.57 191.31,-143.96 94.75,3.47 133.89,83.02 182.18,154.58 l 135.53,199.23 c 14.36,21.78 29.75,44.03 45.17,66.4 17.27,24.79 38.34,49.2 34.55,76.61 -4.2,28.42 -30.1,53.12 -63.92,48.29 -29.46,-4.18 -42.19,-29.52 -58.1,-53.58 -30.72,-46.37 -58.74,-86.55 -90.19,-133.03 -30.31,-44.8 -59.33,-88.58 -90.2,-132.87 -15.98,-22.66 -29.66,-43.67 -45.27,-66.44 -13.3,-19.11 -31.56,-51.91 -65.78,-45.67 -27.11,4.87 -42.47,35.68 -56.95,56.4 -74.79,106.49 -152.3,223.53 -225.9,332.43 -15.03,22 -30.46,48.47 -68.19,42.67 -27.16,-4.09 -50.98,-30.41 -46.39,-64.23 z m 922.8,63.62 c -55.59,-11.49 -46.57,-58.9 -46.57,-117.03 v -329.99 c 0,-27.74 -3.96,-52.83 9.63,-72.93 25.99,-38.92 87.01,-29.62 100.42,14.6 5.27,17.22 2.53,217.21 2.53,244.45 0,54.81 -0.03,109.94 -0.03,164.86 0,27.91 3.79,52.15 -9.49,72.46 -9.81,14.92 -30.94,29 -56.49,23.58 z m 2.33,198.56 c -9.54,-3.92 -15.47,-12.31 -22.24,-18.92 l -40.38,-40.27 c -26.47,-26.69 -4.78,-37.05 28.25,-70.34 7.08,-7.17 13.08,-12.9 20.11,-20.16 26.54,-26.54 36.19,-7 71.03,27.75 48.06,47.7 46.64,37.85 -28.19,112.07 -6.32,6.2 -14.84,15.4 -28.58,9.87" /></g></g></svg>